<svg width="35" height="35" viewBox="0 0 35 35" fill="none" xmlns="http://www.w3.org/2000/svg">
<path d="M6.36364 0C2.85462 0 0 2.85462 0 6.36364V28.6364C0 32.1454 2.85462 35 6.36364 35H28.6364C32.1454 35 35 32.1454 35 28.6364V6.36364C35 2.85462 32.1454 0 28.6364 0H6.36364ZM6.36364 1.06061H28.6364C31.5605 1.06061 33.9394 3.43955 33.9394 6.36364V28.6364C33.9394 31.5605 31.5605 33.9394 28.6364 33.9394H6.36364C3.43955 33.9394 1.06061 31.5605 1.06061 28.6364V6.36364C1.06061 3.43955 3.43955 1.06061 6.36364 1.06061ZM9.2803 3.18182C5.91765 3.18182 3.18182 5.91765 3.18182 9.2803V25.7197C3.18182 29.0823 5.91765 31.8182 9.2803 31.8182H13.2451H22.2603H25.7197C29.0823 31.8182 31.8182 29.0823 31.8182 25.7197V17.7652C31.8182 17.6188 31.6994 17.5 31.553 17.5C31.4067 17.5 31.2879 17.6188 31.2879 17.7652V25.7197C31.2879 28.7901 28.7901 31.2879 25.7197 31.2879H22.5254V26.8621C22.5254 25.6886 21.9755 24.5891 21.0702 23.8636H21.4379C25.2418 23.8636 28.336 20.7805 28.336 16.9904C28.336 15.2738 27.6998 13.6344 26.541 12.3596C26.716 11.265 26.7189 9.62171 26.2231 8.1358C26.1865 8.02762 26.0854 7.95455 25.9714 7.95455C23.8231 7.95455 22.0093 9.38053 21.2525 10.0758H14.6724C12.8163 8.32364 11.143 7.95455 10.0633 7.95455C9.94931 7.95455 9.84823 8.02762 9.81164 8.1358C9.40437 9.35603 9.2254 10.8164 9.33623 11.9846C7.95798 13.286 7.17048 15.1025 7.17048 16.9914C7.17048 20.781 10.2642 23.8636 14.0675 23.8636H14.4218C13.7212 24.4109 13.2196 25.1635 13.0276 25.9828C11.9686 25.9658 10.7545 25.809 10.1876 24.9584C8.90163 23.0281 8.2529 22.8838 7.41078 22.8838C7.05919 22.8838 6.79452 23.0376 6.68368 23.3054C6.52777 23.6808 6.70965 24.1806 7.17048 24.6415C7.792 25.2635 7.79263 25.2628 8.42581 26.5286C8.80869 27.2944 9.90583 28.5638 12.98 28.6333V31.2879H9.2803C6.20985 31.2879 3.71212 28.7901 3.71212 25.7197V9.2803C3.71212 6.20985 6.20985 3.71212 9.2803 3.71212H25.7197C25.8661 3.71212 25.9848 3.59333 25.9848 3.44697C25.9848 3.30061 25.8661 3.18182 25.7197 3.18182H9.2803ZM10.2549 8.48899C11.2455 8.53354 12.7046 8.93579 14.3368 10.488L14.3855 10.5346C14.4348 10.5807 14.4994 10.6061 14.5668 10.6061H21.3571C21.4245 10.6061 21.4953 10.5756 21.5446 10.5294C22.1767 9.93388 23.8272 8.5749 25.7798 8.48899C26.2035 9.89164 26.1728 11.4147 25.9962 12.3979C25.9814 12.4812 26.0068 12.5658 26.0646 12.6268C27.1867 13.8157 27.8057 15.3656 27.8057 16.9904C27.8057 20.4878 24.949 23.3333 21.4379 23.3333H20.1391C20.0145 23.3333 19.9067 23.4201 19.8801 23.5415C19.8531 23.663 19.9148 23.7868 20.0283 23.8388C21.2225 24.3866 21.9951 25.573 21.9951 26.8621V31.2879H13.5103V28.3712C13.5103 28.2248 13.3915 28.1061 13.2451 28.1061C11.028 28.1061 9.48458 27.4613 8.90018 26.2914C8.24102 24.9736 8.22792 24.949 7.54542 24.2665C7.18959 23.9102 7.12799 23.6176 7.17359 23.5084C7.207 23.4262 7.33653 23.4141 7.41078 23.4141C8.00631 23.4141 8.52086 23.414 9.74639 25.2526C10.4925 26.371 12.0079 26.5152 13.2451 26.5152C13.3751 26.5152 13.4855 26.4208 13.5062 26.2925C13.6748 25.2589 14.4293 24.3192 15.4761 23.8398C15.5896 23.7878 15.6523 23.664 15.6253 23.5426C15.5988 23.4206 15.491 23.3333 15.3664 23.3333H14.0686C10.558 23.3333 7.70079 20.4878 7.70079 16.9904C7.70079 15.2059 8.46302 13.4904 9.79196 12.284C9.85507 12.2262 9.88801 12.142 9.87793 12.0571C9.75649 11.014 9.90388 9.63551 10.2549 8.48899ZM31.553 9.01515C31.4067 9.01515 31.2879 9.13394 31.2879 9.2803V11.1364C31.2879 11.2827 31.4067 11.4015 31.553 11.4015C31.6994 11.4015 31.8182 11.2827 31.8182 11.1364V9.2803C31.8182 9.13394 31.6994 9.01515 31.553 9.01515ZM31.553 12.7273C31.4067 12.7273 31.2879 12.8461 31.2879 12.9924V16.4394C31.2879 16.5858 31.4067 16.7045 31.553 16.7045C31.6994 16.7045 31.8182 16.5858 31.8182 16.4394V12.9924C31.8182 12.8461 31.6994 12.7273 31.553 12.7273Z" fill="#FFC107"/>
</svg>
