<svg width="35" height="34" viewBox="0 0 35 34" fill="none" xmlns="http://www.w3.org/2000/svg">
<path d="M7 0C3.14031 0 0 3.05058 0 6.8V27.2C0 30.9494 3.14031 34 7 34H28C31.8597 34 35 30.9494 35 27.2V6.8C35 3.05006 31.8602 0 28 0H7ZM7 1.04615H28C31.2658 1.04615 33.9231 3.62754 33.9231 6.8V27.2C33.9231 30.3725 31.2658 32.9538 28 32.9538H7C3.73423 32.9538 1.07692 30.3725 1.07692 27.2V6.8C1.07692 3.62754 3.73423 1.04615 7 1.04615ZM8.5281 2.61436C5.31025 2.61436 2.69231 5.15751 2.69231 8.28341V25.7156C2.69231 28.8415 5.31025 31.3836 8.5281 31.3836H26.473C29.6908 31.3836 32.3077 28.8415 32.3077 25.7156V15.9538C32.3077 15.809 32.1871 15.6923 32.0385 15.6923C31.8898 15.6923 31.7692 15.8095 31.7692 15.9538V25.7156C31.7692 28.5527 29.3936 30.8615 26.473 30.8615H8.5281C5.60748 30.8615 3.23077 28.5527 3.23077 25.7156V8.28341C3.23077 5.44624 5.60748 3.13744 8.5281 3.13744H26.6538C26.8025 3.13744 26.9231 3.02027 26.9231 2.8759C26.9231 2.73153 26.8025 2.61436 26.6538 2.61436H8.5281ZM11.5864 9.43684C10.4626 9.43684 9.64709 10.2018 9.64709 11.2564C9.64709 12.3109 10.4459 13.0759 11.5664 13.0759C12.6902 13.0759 13.5068 12.311 13.5068 11.2502C13.4798 10.1826 12.6892 9.43684 11.5864 9.43684ZM11.5864 9.95992C12.4054 9.95992 12.9484 10.4723 12.9683 11.2574C12.9688 12.0206 12.3928 12.5538 11.5485 12.5538C10.7468 12.5538 10.1855 12.0206 10.1855 11.2574C10.1855 10.4937 10.7615 9.95992 11.5864 9.95992ZM32.0385 10.4615C31.8898 10.4615 31.7692 10.5782 31.7692 10.7231V11.7692C31.7692 11.9136 31.8898 12.0308 32.0385 12.0308C32.1871 12.0308 32.3077 11.9136 32.3077 11.7692V10.7231C32.3077 10.5787 32.1871 10.4615 32.0385 10.4615ZM32.0385 12.5538C31.8898 12.5538 31.7692 12.671 31.7692 12.8154V14.9077C31.7692 15.0521 31.8898 15.1692 32.0385 15.1692C32.1871 15.1692 32.3077 15.0521 32.3077 14.9077V12.8154C32.3077 12.6705 32.1871 12.5538 32.0385 12.5538ZM21.6836 14.0587C20.499 14.0655 19.5386 14.4091 18.8451 15.1314V14.3836C18.8451 14.2392 18.7245 14.1221 18.5759 14.1221H15.3051C15.2314 14.1221 15.1607 14.151 15.1095 14.2028C15.0589 14.2545 15.0327 14.3247 15.0359 14.3959C15.0795 15.3107 15.0359 24.2311 15.0359 24.321C15.0354 24.3911 15.0637 24.4578 15.1137 24.507C15.1643 24.5561 15.233 24.5836 15.3041 24.5836H18.5769C18.7255 24.5836 18.8462 24.4664 18.8462 24.3221V18.7705C18.8462 18.4504 18.8778 18.2126 18.9408 18.0625C19.0717 17.7487 19.4788 17.0184 20.4395 17.0184C21.8761 17.0184 22.0317 18.4344 22.0317 19.0453L22.0759 24.3241C22.077 24.4679 22.1976 24.5836 22.3451 24.5836H25.5759C25.7245 24.5836 25.8451 24.4664 25.8451 24.3221V18.9983C25.8451 17.2565 25.4028 15.9441 24.5305 15.0977C23.8197 14.4083 22.8623 14.0587 21.6836 14.0587ZM9.96154 14.1231C9.81292 14.1231 9.69231 14.2402 9.69231 14.3846V24.3231C9.69231 24.4674 9.81292 24.5846 9.96154 24.5846H13.1923C13.3409 24.5846 13.4615 24.4674 13.4615 24.3231V14.3846C13.4615 14.2402 13.3409 14.1231 13.1923 14.1231H9.96154ZM21.6752 14.5828H21.6836C22.7147 14.5828 23.5451 14.8812 24.1508 15.4686C24.9181 16.2129 25.3077 17.4003 25.3077 18.9983V24.0615H22.6133L22.5702 19.0443C22.5702 17.4724 21.7544 16.4953 20.4405 16.4953C19.5467 16.4953 18.7993 17.0075 18.4423 17.8653C18.3518 18.0808 18.3077 18.3766 18.3077 18.7705V24.0605H15.5754C15.5824 22.6503 15.6092 16.2295 15.5807 14.6462H18.3077V15.8507C18.2775 15.9244 18.2899 16.0099 18.3308 16.0816C18.3788 16.1637 18.4795 16.2154 18.5769 16.2154C18.6889 16.2154 18.7847 16.1284 18.8251 16.0243C19.2182 15.3966 19.944 14.5828 21.6752 14.5828ZM10.2308 14.6462H12.9231V24.0615H10.2308V14.6462Z" fill="#FFC107"/>
</svg>
