<?xml version="1.0"?><svg xmlns="http://www.w3.org/2000/svg"  viewBox="0 0 100 100" width="100px" height="100px">    <path d="M 30.306641 17.654297 C 23.138641 17.654297 17.306641 23.486297 17.306641 30.654297 L 17.306641 69.654297 C 17.306641 76.822297 23.138641 82.654297 30.306641 82.654297 L 69.306641 82.654297 C 76.474641 82.654297 82.306641 76.822297 82.306641 69.654297 L 82.306641 30.654297 C 82.306641 23.485297 76.475641 17.654297 69.306641 17.654297 L 30.306641 17.654297 z M 30.306641 19.654297 L 69.306641 19.654297 C 75.371641 19.654297 80.306641 24.589297 80.306641 30.654297 L 80.306641 69.654297 C 80.306641 75.719297 75.371641 80.654297 69.306641 80.654297 L 30.306641 80.654297 C 24.241641 80.654297 19.306641 75.719297 19.306641 69.654297 L 19.306641 30.654297 C 19.306641 24.589297 24.241641 19.654297 30.306641 19.654297 z M 33.144531 22.652344 C 27.168531 22.652344 22.306641 27.514234 22.306641 33.490234 L 22.306641 66.816406 C 22.306641 72.792406 27.168531 77.652344 33.144531 77.652344 L 66.470703 77.652344 C 72.446703 77.652344 77.306641 72.792406 77.306641 66.816406 L 77.306641 48.154297 C 77.306641 47.877297 77.082641 47.654297 76.806641 47.654297 C 76.530641 47.654297 76.306641 47.878297 76.306641 48.154297 L 76.306641 66.816406 C 76.306641 72.240406 71.894703 76.654297 66.470703 76.654297 L 33.144531 76.654297 C 27.720531 76.654297 23.306641 72.240406 23.306641 66.816406 L 23.306641 33.490234 C 23.306641 28.066234 27.720531 23.652344 33.144531 23.652344 L 66.806641 23.652344 C 67.082641 23.652344 67.306641 23.428344 67.306641 23.152344 C 67.306641 22.876344 67.082641 22.652344 66.806641 22.652344 L 33.144531 22.652344 z M 38.824219 35.695312 C 36.737219 35.695312 35.222656 37.157828 35.222656 39.173828 C 35.222656 41.189828 36.706109 42.652344 38.787109 42.652344 C 40.874109 42.652344 42.390625 41.190109 42.390625 39.162109 C 42.340625 37.121109 40.872219 35.695312 38.824219 35.695312 z M 38.824219 36.695312 C 40.345219 36.695312 41.353625 37.674781 41.390625 39.175781 C 41.391625 40.634781 40.321906 41.654297 38.753906 41.654297 C 37.264906 41.654297 36.222656 40.634781 36.222656 39.175781 C 36.222656 37.715781 37.292219 36.695312 38.824219 36.695312 z M 76.806641 37.654297 C 76.530641 37.654297 76.306641 37.877297 76.306641 38.154297 L 76.306641 40.154297 C 76.306641 40.430297 76.530641 40.654297 76.806641 40.654297 C 77.082641 40.654297 77.306641 40.430297 77.306641 40.154297 L 77.306641 38.154297 C 77.306641 37.878297 77.082641 37.654297 76.806641 37.654297 z M 76.806641 41.654297 C 76.530641 41.654297 76.306641 41.878297 76.306641 42.154297 L 76.306641 46.154297 C 76.306641 46.430297 76.530641 46.654297 76.806641 46.654297 C 77.082641 46.654297 77.306641 46.430297 77.306641 46.154297 L 77.306641 42.154297 C 77.306641 41.877297 77.082641 41.654297 76.806641 41.654297 z M 57.576172 44.53125 C 55.376172 44.54425 53.592687 45.201031 52.304688 46.582031 L 52.304688 45.152344 C 52.304688 44.876344 52.080688 44.652344 51.804688 44.652344 L 45.730469 44.652344 C 45.593469 44.652344 45.462188 44.707641 45.367188 44.806641 C 45.273187 44.905641 45.224469 45.039781 45.230469 45.175781 C 45.311469 46.924781 45.230469 63.978391 45.230469 64.150391 C 45.229469 64.284391 45.282 64.411859 45.375 64.505859 C 45.469 64.599859 45.596516 64.652344 45.728516 64.652344 L 51.806641 64.652344 C 52.082641 64.652344 52.306641 64.428344 52.306641 64.152344 L 52.306641 53.539062 C 52.306641 52.927062 52.365422 52.472547 52.482422 52.185547 C 52.725422 51.585547 53.481625 50.189453 55.265625 50.189453 C 57.933625 50.189453 58.222656 52.896453 58.222656 54.064453 L 58.304688 64.15625 C 58.306688 64.43125 58.530688 64.652344 58.804688 64.652344 L 64.804688 64.652344 C 65.080687 64.652344 65.304688 64.428344 65.304688 64.152344 L 65.304688 53.974609 C 65.304688 50.644609 64.483281 48.135578 62.863281 46.517578 C 61.543281 45.199578 59.765172 44.53125 57.576172 44.53125 z M 35.806641 44.654297 C 35.530641 44.654297 35.306641 44.878297 35.306641 45.154297 L 35.306641 64.154297 C 35.306641 64.430297 35.530641 64.654297 35.806641 64.654297 L 41.806641 64.654297 C 42.082641 64.654297 42.306641 64.430297 42.306641 64.154297 L 42.306641 45.154297 C 42.306641 44.878297 42.082641 44.654297 41.806641 44.654297 L 35.806641 44.654297 z M 57.560547 45.533203 L 57.576172 45.533203 C 59.491172 45.533203 61.033203 46.103563 62.158203 47.226562 C 63.583203 48.649563 64.306641 50.919609 64.306641 53.974609 L 64.306641 63.654297 L 59.302734 63.654297 L 59.222656 54.0625 C 59.222656 51.0575 57.707578 49.189453 55.267578 49.189453 C 53.607578 49.189453 52.219641 50.168594 51.556641 51.808594 C 51.388641 52.220594 51.306641 52.786062 51.306641 53.539062 L 51.306641 63.652344 L 46.232422 63.652344 C 46.245422 60.956344 46.295188 48.681297 46.242188 45.654297 L 51.306641 45.654297 L 51.306641 47.957031 C 51.250641 48.098031 51.273609 48.261437 51.349609 48.398438 C 51.438609 48.555437 51.625641 48.654297 51.806641 48.654297 C 52.014641 48.654297 52.192578 48.488063 52.267578 48.289062 C 52.997578 47.089062 54.345547 45.533203 57.560547 45.533203 z M 36.306641 45.654297 L 41.306641 45.654297 L 41.306641 63.654297 L 36.306641 63.654297 L 36.306641 45.654297 z"/></svg>