<svg width="510" height="255" viewBox="0 0 510 255" fill="none" xmlns="http://www.w3.org/2000/svg">
<path d="M499.375 74.375H460.062C459 73.3125 459 73.3125 457.937 72.25C467.5 64.8125 473.875 53.125 473.875 40.375C473.875 18.0625 455.812 0 433.5 0H369.75H359.125V10.625V106.25V112.625L355.938 103.063L324.062 7.4375L320.875 0H313.438H268.812H261.375L259.25 7.4375L250.75 34V31.875V10.625V0H240.125H96.6875C76.5 0 61.625 15.9375 61.625 36.125C61.625 45.6875 64.8125 49.9375 66.9375 53.125C69.0625 55.25 77.5625 65.875 82.875 73.3125H10.625H0V83.9375V105.187V115.812H10.625H104.125C124.312 115.812 140.25 99.875 140.25 79.6875C140.25 70.125 137.062 65.875 134.938 62.6875L119 41.4375H156.188V105.187V115.812H166.812H194.437H205.062V105.187V41.4375H240.125H247.562L228.438 102L223.125 116.875H238H264.562H272L274.125 109.437L279.438 95.625H304.938L310.25 109.437L312.375 116.875H318.75H345.312H358.062H368.688H397.375H408V106.25V94.5625C414.375 100.938 420.75 106.25 425 110.5C427.125 111.562 431.375 116.875 439.875 116.875H499.375H510V106.25V85V74.375H499.375ZM164.688 151.937L132.812 247.562L130.688 255H123.25H105.187H97.75L95.625 247.562L85 218.875L75.4375 247.562L72.25 255H64.8125H46.75H38.25L36.125 247.562L4.25 151.937L0 138.125H14.875H42.5H49.9375L52.0625 145.563L55.25 157.25L59.5 145.563L62.6875 138.125H70.125H99.875H107.313L109.438 145.563L113.688 157.25L116.875 145.563L119 138.125H127.5H155.125H170L164.688 151.937ZM438.812 138.125C418.625 138.125 402.688 154.062 402.688 174.25C402.688 183.812 405.875 188.062 408 191.25C410.125 193.375 418.625 204 425 211.438H377.188C377.188 211.438 377.188 211.438 376.125 211.438L375.062 210.375C384.625 202.937 391 191.25 391 178.5C391 156.188 372.938 138.125 350.625 138.125H314.5H286.875H276.25V148.75V244.375V255L272 241.188L240.125 145.563L238 138.125H230.563H185.938H178.5L176.375 145.563L145.562 241.188L140.25 255H155.125H180.625H188.063L190.188 247.562L195.5 233.75H221L226.312 247.562L228.438 255H235.875H262.438H276.25H286.875H315.562H326.188V244.375V232.688C332.562 239.063 338.938 244.375 344.25 248.625C348.5 252.875 353.813 255 360.188 255H448.375C468.562 255 484.5 239.062 484.5 218.875C484.5 209.312 481.312 205.062 479.187 201.875L463.25 180.625H499.375H510V170V148.75V138.125H499.375H438.812Z" fill="#FFC107"/>
<path d="M239.062 10.625C239.062 10.625 105.187 10.625 95.625 10.625C81.8125 10.625 71.1875 21.25 71.1875 36.125C71.1875 42.5 73.3125 44.625 74.375 46.75C77.5625 51 96.6875 74.375 96.6875 74.375C96.6875 75.4375 97.75 76.5 97.75 77.5625C98.8125 81.8125 95.625 85 91.375 85H10.625V106.25C10.625 106.25 96.6875 106.25 104.125 106.25C117.937 106.25 129.625 95.625 129.625 80.75C129.625 74.375 127.5 72.25 126.437 70.125L106.25 42.5C106.25 41.4375 105.187 40.375 105.187 39.3125C105.187 35.0625 108.375 31.875 112.625 31.875H167.875V106.25H195.5V31.875H241.187V10.625H239.062ZM313.438 10.625H268.812L238 106.25H264.562L272 85H312.375L319.812 106.25H346.375L313.438 10.625ZM278.375 63.75L291.125 25.5L303.875 63.75H278.375ZM460.062 85C455.812 85 453.687 82.875 451.562 80.75C446.25 74.375 439.875 69.0625 439.875 69.0625C452.625 65.875 462.187 54.1875 462.187 40.375C462.187 23.375 448.375 10.625 432.438 10.625H368.687V106.25H397.375V70.125C397.375 70.125 421.812 93.5 432.438 103.063C433.5 104.125 436.687 106.25 440.937 106.25C444.125 106.25 499.375 106.25 499.375 106.25V85H460.062ZM397.375 31.875H425C431.375 31.875 436.687 36.125 436.687 42.5C436.687 48.875 431.375 53.125 425 53.125H397.375V31.875ZM127.5 148.75L113.687 190.187L99.875 148.75H70.125L55.25 190.187L41.4375 148.75H14.875L46.75 244.375H64.8125L85 185.938L105.187 244.375H123.25L155.125 148.75H127.5ZM453.687 170H499.375V148.75C499.375 148.75 448.375 148.75 438.812 148.75C425 148.75 413.312 159.375 413.312 174.25C413.312 180.625 415.438 182.75 416.5 184.875C419.688 188.062 439.875 211.437 439.875 211.437C439.875 212.5 440.937 213.562 440.937 214.625C440.937 218.875 437.75 222.062 434.562 222.062C434.562 222.062 379.312 222.062 378.25 222.062C374 222.062 371.875 219.938 369.75 217.812C364.437 211.438 359.125 206.125 359.125 206.125C371.875 202.937 381.438 191.25 381.438 177.438C381.438 160.438 367.625 147.688 351.687 147.688H315.562H286.875V243.312H315.562V207.187C315.562 207.187 340 230.562 350.625 240.125C351.687 241.187 354.875 243.312 359.125 243.312C362.312 243.312 442 243.312 447.312 243.312C461.125 243.312 472.812 233.75 472.812 217.812C472.812 211.438 470.687 209.312 469.625 207.187L448.375 180.625C448.375 179.562 447.312 178.5 447.312 177.438C447.312 173.188 450.5 170 453.687 170ZM343.187 191.25H315.562V170H343.187C349.562 170 354.875 174.25 354.875 180.625C354.875 187 349.562 191.25 343.187 191.25ZM230.562 148.75H185.937L155.125 244.375H180.625L188.062 223.125H228.437L235.875 244.375H262.437L230.562 148.75ZM195.5 201.875L208.25 163.625L221 201.875H195.5Z" fill="black"/>
</svg>
